<?xml version="1.0" encoding="UTF-8"?>
<svg width="374px" height="252px" viewBox="0 0 374 252" version="1.1" xmlns="http://www.w3.org/2000/svg" xmlns:xlink="http://www.w3.org/1999/xlink">
    <title>Group 24</title>
    <defs>
        <polygon id="path-1" points="0 0.4026 67.9189 0.4026 67.9189 44.1816 0 44.1816"></polygon>
        <polygon id="path-3" points="0.4316 0.4022 43.7196 0.4022 43.7196 45 0.4316 45"></polygon>
        <polygon id="path-5" points="0.0549 0.4461 45.8789 0.4461 45.8789 61 0.0549 61"></polygon>
    </defs>
    <g id="-↳---2.0-Onze-verhalen" stroke="none" stroke-width="1" fill="none" fill-rule="evenodd">
        <g id="Group-24">
            <polygon id="Fill-1" fill="#1C98FC" points="147.528 -0.0004 71.161 76.3676 147.528 152.7346 223.896 76.3676"></polygon>
            <polygon id="Fill-2" fill="#00EFC8" points="223.8957 -0.0004 147.5277 76.3676 223.8957 152.7346 300.2637 76.3676"></polygon>
            <polygon id="Fill-3" fill="#FFFFFF" points="147.5283 76.3674 185.7123 38.1834 223.8963 76.3674"></polygon>
            <g id="Group-23" transform="translate(0.000000, 189.862000)">
                <g id="Group-6" transform="translate(0.000000, 16.000000)">
                    <mask id="mask-2" fill="white">
                        <use xlink:href="#path-1"></use>
                    </mask>
                    <g id="Clip-5"></g>
                    <path d="M67.9189,44.1816 L54.8259,44.1816 L54.8259,20.0416 C54.8259,17.2056 54.3069,15.1466 53.2719,13.8636 C52.2339,12.5826 50.8979,11.9406 49.2619,11.9406 C48.3889,11.9406 47.5019,12.1326 46.6019,12.5136 C45.7019,12.8956 44.8699,13.4276 44.1069,14.1096 C43.3419,14.7916 42.6469,15.5956 42.0199,16.5236 C41.3919,17.4516 40.8869,18.4596 40.5059,19.5506 L40.5059,44.1816 L27.4129,44.1816 L27.4129,20.0416 C27.4129,17.2056 26.8939,15.1466 25.8579,13.8636 C24.8209,12.5826 23.4849,11.9406 21.8489,11.9406 C20.1019,11.9406 18.3979,12.6356 16.7339,14.0276 C15.0699,15.4176 13.8559,17.2596 13.0929,19.5506 L13.0929,44.1816 L-0.0001,44.1816 L-0.0001,1.2206 L11.7839,1.2206 L11.7839,8.4216 C13.3649,5.8036 15.5069,3.8126 18.2079,2.4486 C20.9079,1.0846 24.0579,0.4026 27.6589,0.4026 C29.4589,0.4026 31.0259,0.6206 32.3639,1.0576 C33.6999,1.4936 34.8599,2.0936 35.8419,2.8576 C36.8239,3.6216 37.6139,4.5076 38.2149,5.5166 C38.8149,6.5276 39.2509,7.6036 39.5239,8.7486 C41.1609,6.0776 43.3149,4.0176 45.9889,2.5716 C48.6609,1.1256 51.7169,0.4026 55.1529,0.4026 C57.8809,0.4026 60.0759,0.9076 61.7409,1.9166 C63.4039,2.9266 64.6989,4.2366 65.6279,5.8446 C66.5549,7.4536 67.1689,9.2136 67.4689,11.1216 C67.7679,13.0326 67.9189,14.8866 67.9189,16.6866 L67.9189,44.1816 Z" id="Fill-4" fill="#0D2267" mask="url(#mask-2)"></path>
                </g>
                <path d="M92.5493,51.5898 C93.9673,51.5898 95.3443,51.3438 96.6823,50.8538 C98.0183,50.3618 99.1223,49.7068 99.9963,48.8888 C101.2503,47.9068 101.8783,46.8708 101.8783,45.7788 L101.8783,41.6888 C100.7323,41.2518 99.4913,40.9108 98.1543,40.6648 C96.8173,40.4198 95.5773,40.2968 94.4313,40.2968 C92.0303,40.2968 90.0533,40.8428 88.4993,41.9338 C86.9443,43.0258 86.1673,44.4438 86.1673,46.1888 C86.1673,47.7718 86.7663,49.0668 87.9673,50.0748 C89.1663,51.0858 90.6943,51.5898 92.5493,51.5898 M88.7033,60.9998 C86.5763,60.9998 84.5983,60.6578 82.7713,59.9778 C80.9423,59.2958 79.3753,58.3408 78.0653,57.1128 C76.7563,55.8858 75.7193,54.4408 74.9563,52.7768 C74.1913,51.1118 73.8103,49.2978 73.8103,47.3338 C73.8103,45.2068 74.2603,43.2708 75.1603,41.5248 C76.0613,39.7788 77.3293,38.2788 78.9663,37.0238 C80.6023,35.7698 82.5383,34.7868 84.7763,34.0778 C87.0123,33.3688 89.4933,33.0138 92.2223,33.0138 C94.0223,33.0138 95.7673,33.1648 97.4593,33.4638 C99.1493,33.7648 100.6223,34.2148 101.8783,34.8148 L101.8783,32.8508 C101.8783,27.8868 99.0143,25.4038 93.2863,25.4038 C90.9403,25.4038 88.7033,25.8008 86.5763,26.5908 C84.4483,27.3818 82.2113,28.5688 79.8653,30.1508 L76.0203,21.9668 C78.8563,20.1128 81.8013,18.7218 84.8573,17.7938 C87.9123,16.8668 91.1583,16.4018 94.5953,16.4018 C101.0873,16.4018 106.1053,17.9308 109.6523,20.9858 C113.1973,24.0408 114.9703,28.5138 114.9703,34.4048 L114.9703,45.4518 C114.9703,46.7618 115.1753,47.6758 115.5843,48.1938 C115.9933,48.7128 116.7163,49.0268 117.7533,49.1348 L117.7533,60.1818 C116.6073,60.4538 115.5703,60.6318 114.6433,60.7138 C113.7153,60.7948 112.8703,60.8358 112.1073,60.8358 C109.6523,60.8358 107.7973,60.3588 106.5423,59.4038 C105.2873,58.4498 104.4963,57.1008 104.1693,55.3538 L103.9243,53.3898 C102.0133,55.8448 99.7363,57.7268 97.0913,59.0358 C94.4443,60.3458 91.6493,60.9998 88.7033,60.9998" id="Fill-7" fill="#0D2267"></path>
                <path d="M151.958,57.8906 C150.158,58.6556 148.098,59.3636 145.78,60.0176 C143.46,60.6726 141.128,60.9996 138.783,60.9996 C137.147,60.9996 135.605,60.7946 134.16,60.3856 C132.714,59.9776 131.446,59.3226 130.355,58.4216 C129.263,57.5226 128.404,56.3356 127.777,54.8626 C127.149,53.3896 126.836,51.6176 126.836,49.5436 L126.836,27.1216 L121.354,27.1216 L121.354,17.2206 L126.836,17.2206 L126.836,3.5556 L139.929,3.5556 L139.929,17.2206 L148.685,17.2206 L148.685,27.1216 L139.929,27.1216 L139.929,45.0426 C139.929,46.4616 140.283,47.4856 140.993,48.1116 C141.701,48.7396 142.602,49.0526 143.693,49.0526 C144.675,49.0526 145.684,48.8886 146.721,48.5616 C147.757,48.2346 148.657,47.8796 149.421,47.4976 L151.958,57.8906 Z" id="Fill-9" fill="#0D2267"></path>
                <g id="Group-13" transform="translate(153.000000, 16.000000)">
                    <mask id="mask-4" fill="white">
                        <use xlink:href="#path-3"></use>
                    </mask>
                    <g id="Clip-12"></g>
                    <path d="M0.4316,22.6602 C0.4316,19.7152 0.9496,16.8912 1.9866,14.1912 C3.0216,11.4902 4.5226,9.1172 6.4876,7.0722 C8.4516,5.0262 10.8656,3.4032 13.7286,2.2032 C16.5936,1.0042 19.8516,0.4022 23.5076,0.4022 C28.4716,0.4022 32.6446,1.4542 36.0276,3.5532 C39.4096,5.6542 41.9466,8.3952 43.6376,11.7772 L30.8726,15.6232 C29.1806,12.8952 26.6996,11.5312 23.4256,11.5312 C20.6976,11.5312 18.4206,12.5422 16.5936,14.5592 C14.7646,16.5782 13.8516,19.2782 13.8516,22.6602 C13.8516,24.3512 14.0976,25.8922 14.5886,27.2842 C15.0786,28.6752 15.7606,29.8612 16.6336,30.8442 C17.5056,31.8252 18.5286,32.5902 19.7026,33.1352 C20.8746,33.6812 22.1166,33.9532 23.4256,33.9532 C25.0626,33.9532 26.5626,33.5572 27.9266,32.7662 C29.2896,31.9762 30.2996,30.9532 30.9536,29.6972 L43.7196,33.6262 C42.1366,36.9542 39.6146,39.6812 36.1506,41.8082 C32.6856,43.9362 28.4716,45.0002 23.5076,45.0002 C19.9076,45.0002 16.6746,44.3862 13.8106,43.1592 C10.9466,41.9312 8.5186,40.2952 6.5276,38.2492 C4.5356,36.2032 3.0216,33.8302 1.9866,31.1302 C0.9496,28.4302 0.4316,25.6062 0.4316,22.6602" id="Fill-11" fill="#0D2267" mask="url(#mask-4)"></path>
                </g>
                <path d="M244.0171,60.1816 L230.9231,60.1816 L230.9231,36.0416 C230.9231,33.2596 230.3781,31.2136 229.2871,29.9046 C228.1951,28.5956 226.6971,27.9406 224.7871,27.9406 C224.0231,27.9406 223.1911,28.1186 222.2901,28.4726 C221.3901,28.8276 220.5171,29.3456 219.6731,30.0276 C218.8261,30.7096 218.0481,31.5146 217.3411,32.4416 C216.6301,33.3696 216.0851,34.4056 215.7051,35.5506 L215.7051,60.1816 L202.6111,60.1816 L202.6111,0.4466 L215.7051,0.4466 L215.7051,24.4216 C217.2851,21.8586 219.3721,19.8806 221.9641,18.4896 C224.5541,17.0986 227.4061,16.4026 230.5151,16.4026 C233.4061,16.4026 235.7381,16.9076 237.5111,17.9166 C239.2831,18.9266 240.6481,20.2076 241.6031,21.7626 C242.5561,23.3176 243.1991,25.0636 243.5271,26.9996 C243.8531,28.9366 244.0171,30.8326 244.0171,32.6866 L244.0171,60.1816 Z" id="Fill-14" fill="#0D2267"></path>
                <path d="M250.8901,0.4463 L263.9831,0.4463 L263.9831,44.8803 C263.9831,48.1523 265.3741,49.7893 268.1571,49.7893 C268.8111,49.7893 269.5341,49.6943 270.3251,49.5033 C271.1151,49.3123 271.8381,49.0263 272.4941,48.6433 L274.2111,58.4633 C272.5751,59.2273 270.6931,59.8273 268.5661,60.2633 C266.4381,60.6993 264.4461,60.9183 262.5921,60.9183 C258.8271,60.9183 255.9351,59.9363 253.9171,57.9723 C251.8991,56.0093 250.8901,53.1733 250.8901,49.4623 L250.8901,0.4463 Z" id="Fill-16" fill="#0D2267"></path>
                <path d="M296.1411,51.5898 C297.5591,51.5898 298.9361,51.3438 300.2741,50.8538 C301.6101,50.3618 302.7141,49.7068 303.5871,48.8888 C304.8421,47.9068 305.4701,46.8708 305.4701,45.7788 L305.4701,41.6888 C304.3251,41.2518 303.0821,40.9108 301.7461,40.6648 C300.4101,40.4198 299.1691,40.2968 298.0241,40.2968 C295.6221,40.2968 293.6461,40.8428 292.0901,41.9338 C290.5361,43.0258 289.7581,44.4438 289.7581,46.1888 C289.7581,47.7718 290.3581,49.0668 291.5591,50.0748 C292.7581,51.0858 294.2861,51.5898 296.1411,51.5898 M292.2951,60.9998 C290.1671,60.9998 288.1901,60.6578 286.3631,59.9778 C284.5351,59.2958 282.9661,58.3408 281.6581,57.1128 C280.3481,55.8858 279.3111,54.4408 278.5481,52.7768 C277.7841,51.1118 277.4021,49.2978 277.4021,47.3338 C277.4021,45.2068 277.8521,43.2708 278.7521,41.5248 C279.6531,39.7788 280.9211,38.2788 282.5571,37.0238 C284.1941,35.7698 286.1301,34.7868 288.3681,34.0778 C290.6041,33.3688 293.0851,33.0138 295.8141,33.0138 C297.6151,33.0138 299.3601,33.1648 301.0511,33.4638 C302.7421,33.7648 304.2141,34.2148 305.4701,34.8148 L305.4701,32.8508 C305.4701,27.8868 302.6061,25.4038 296.8771,25.4038 C294.5321,25.4038 292.2951,25.8008 290.1671,26.5908 C288.0401,27.3818 285.8021,28.5688 283.4571,30.1508 L279.6121,21.9668 C282.4481,20.1128 285.3931,18.7218 288.4501,17.7938 C291.5031,16.8668 294.7501,16.4018 298.1871,16.4018 C304.6781,16.4018 309.6971,17.9308 313.2441,20.9858 C316.7891,24.0408 318.5631,28.5138 318.5631,34.4048 L318.5631,45.4518 C318.5631,46.7618 318.7671,47.6758 319.1761,48.1938 C319.5851,48.7128 320.3081,49.0268 321.3451,49.1348 L321.3451,60.1818 C320.2001,60.4538 319.1621,60.6318 318.2361,60.7138 C317.3071,60.7948 316.4621,60.8358 315.6991,60.8358 C313.2441,60.8358 311.3881,60.3588 310.1341,59.4038 C308.8781,58.4498 308.0881,57.1008 307.7611,55.3538 L307.5161,53.3898 C305.6061,55.8448 303.3281,57.7268 300.6831,59.0358 C298.0371,60.3458 295.2421,60.9998 292.2951,60.9998" id="Fill-18" fill="#0D2267"></path>
                <g id="Group-22" transform="translate(328.000000, 0.000000)">
                    <mask id="mask-6" fill="white">
                        <use xlink:href="#path-5"></use>
                    </mask>
                    <g id="Clip-21"></g>
                    <path d="M22.1489,49.9531 C23.6749,49.9531 25.0669,49.6661 26.3219,49.0941 C27.5769,48.5201 28.6549,47.7431 29.5539,46.7621 C30.4549,45.7791 31.1629,44.6211 31.6819,43.2841 C32.1999,41.9471 32.4599,40.4881 32.4599,38.9061 C32.4599,37.3791 32.2139,35.9191 31.7229,34.5281 C31.2319,33.1371 30.5629,31.9241 29.7179,30.8871 C28.8719,29.8501 27.8489,29.0321 26.6499,28.4321 C25.4489,27.8321 24.1669,27.5311 22.8029,27.5311 C20.7299,27.5311 18.8349,28.2411 17.1169,29.6591 C15.3979,31.0781 14.0749,32.8501 13.1479,34.9781 L13.1479,43.9791 C14.0199,45.8351 15.2879,47.2931 16.9529,48.3571 C18.6159,49.4211 20.3489,49.9531 22.1489,49.9531 M25.8319,61.0001 C22.5579,61.0001 19.6939,60.3051 17.2389,58.9131 C14.7849,57.5221 12.8469,55.5721 11.4289,53.0621 L11.4289,60.1821 L0.0549,60.1821 L0.0549,0.4461 L13.1479,0.4461 L13.1479,24.2591 C14.5659,21.8041 16.4619,19.8811 18.8349,18.4891 C21.2079,17.0991 24.0029,16.4021 27.2219,16.4021 C29.9499,16.4021 32.4599,16.9891 34.7509,18.1621 C37.0419,19.3361 39.0059,20.9321 40.6419,22.9491 C42.2789,24.9681 43.5599,27.3551 44.4889,30.1091 C45.4159,32.8641 45.8789,35.7961 45.8789,38.9061 C45.8789,42.0161 45.3749,44.9201 44.3659,47.6211 C43.3559,50.3211 41.9519,52.6671 40.1519,54.6581 C38.3509,56.6501 36.2239,58.2051 33.7689,59.3221 C31.3139,60.4391 28.6679,61.0001 25.8319,61.0001" id="Fill-20" fill="#0D2267" mask="url(#mask-6)"></path>
                </g>
            </g>
        </g>
    </g>
</svg>