<?xml version="1.0" encoding="UTF-8"?>
<svg width="556px" height="110px" viewBox="0 0 556 110" version="1.1" xmlns="http://www.w3.org/2000/svg" xmlns:xlink="http://www.w3.org/1999/xlink">
    <title>Group 24</title>
    <defs>
        <polygon id="path-1" points="0 0.56 41.9999 0.56 41.9999 108.559147 0 108.559147"></polygon>
        <polygon id="path-3" points="0.0004 0.7701 18 0.7701 18 18.7701 0.0004 18.7701"></polygon>
        <polygon id="path-5" points="-0.0001 0.56 71.9999 0.56 71.9999 108.5597 -0.0001 108.5597"></polygon>
    </defs>
    <g id="Page-1" stroke="none" stroke-width="1" fill="none" fill-rule="evenodd">
        <g id="Group-24">
            <path d="M78.4018,65.5392 L77.3688,65.9192 L67.2908,69.5692 C67.9528,66.1092 69.6178,62.9992 71.9848,60.5502 C72.2048,60.3002 72.4448,60.0692 72.6958,59.8392 C75.9248,56.8392 80.2468,55.0092 85.0008,55.0092 C89.3018,55.0092 93.2628,56.5102 96.3618,59.0192 L78.4018,65.5392 Z M114.6128,52.3992 C108.0848,43.0892 97.2548,37.0092 85.0008,37.0092 C75.2628,37.0092 66.4288,40.8592 59.9308,47.1092 C59.6898,47.3302 59.4488,47.5692 59.2088,47.8102 C52.8408,54.2992 48.8998,63.1892 48.8998,73.0102 C48.8998,74.0792 48.9498,75.1402 49.0408,76.1892 C49.5918,82.4392 51.7378,88.2392 55.0878,93.1592 C61.5748,102.7292 72.5558,109.0102 85.0008,109.0102 C90.4698,109.0102 95.6568,107.7952 100.3058,105.6192 C105.8988,103.0022 107.0538,95.5212 102.6818,91.1622 C100.0508,88.5382 96.0438,87.7202 92.6818,89.3022 C90.3498,90.3982 87.7458,91.0102 85.0008,91.0102 C80.4778,91.0102 76.3358,89.3502 73.1678,86.6002 L91.4478,79.9592 L92.4908,79.5792 L102.8298,75.8292 L116.1488,70.9942 C119.0568,69.9382 120.7018,66.8392 119.9168,63.8462 C118.8258,59.6852 117.0088,55.8232 114.6128,52.3992 L114.6128,52.3992 Z" id="Fill-1" fill="#355CFF"></path>
            <path d="M379.4018,65.7502 L378.3698,66.1302 L368.2918,69.7792 C368.9528,66.3192 370.6178,63.2102 372.9838,60.7602 C373.2048,60.5102 373.4458,60.2792 373.6958,60.0502 C376.9248,57.0502 381.2478,55.2202 386.0008,55.2202 C390.3018,55.2202 394.2628,56.7202 397.3618,59.2292 L379.4018,65.7502 Z M415.6128,52.6092 C409.0848,43.2992 398.2548,37.2202 386.0008,37.2202 C376.2628,37.2202 367.4288,41.0692 360.9308,47.3192 C360.6898,47.5402 360.4498,47.7802 360.2088,48.0202 C353.8408,54.5102 349.8998,63.3992 349.8998,73.2202 C349.8998,74.2902 349.9508,75.3502 350.0408,76.3992 C350.5918,82.6492 352.7378,88.4492 356.0878,93.3692 C362.5758,102.9392 373.5558,109.2202 386.0008,109.2202 C391.4698,109.2202 396.6578,108.0052 401.3058,105.8302 C406.8978,103.2132 408.0538,95.7312 403.6818,91.3722 C401.0508,88.7482 397.0438,87.9312 393.6818,89.5122 C391.3498,90.6092 388.7458,91.2202 386.0008,91.2202 C381.4778,91.2202 377.3368,89.5602 374.1678,86.8102 L392.4478,80.1702 L393.4908,79.7902 L403.8298,76.0402 L417.1488,71.2042 C420.0568,70.1482 421.7018,67.0492 420.9168,64.0562 C419.8258,59.8962 418.0088,56.0332 415.6128,52.6092 L415.6128,52.6092 Z" id="Fill-3" fill="#001F3F"></path>
            <path d="M439.0004,1.2096 L439.0004,1.2096 C434.0294,1.2096 430.0004,5.2396 430.0004,10.2096 L430.0004,55.2096 L430.0004,100.2096 C430.0004,105.1806 434.0294,109.2096 439.0004,109.2096 C443.9704,109.2096 448.0004,105.1806 448.0004,100.2096 L448.0004,55.2096 L448.0004,10.2096 C448.0004,5.2396 443.9704,1.2096 439.0004,1.2096" id="Fill-5" fill="#001F3F"></path>
            <path d="M493.0004,91.2101 C483.0594,91.2101 475.0004,83.1501 475.0004,73.2101 C475.0004,63.2691 483.0594,55.2101 493.0004,55.2101 C502.9404,55.2101 511.0004,63.2691 511.0004,73.2101 C511.0004,83.1501 502.9404,91.2101 493.0004,91.2101 M520.0004,1.2101 L520.0004,1.2101 C515.0294,1.2101 511.0004,5.2391 511.0004,10.2101 L511.0004,42.0381 C505.7034,38.9731 499.5604,37.2101 493.0004,37.2101 C473.1174,37.2101 457.0004,53.3271 457.0004,73.2101 C457.0004,93.0921 473.1174,109.2101 493.0004,109.2101 C499.8924,109.2101 506.3294,107.2701 511.8034,103.9111 C513.2154,107.0331 516.3504,109.2101 520.0004,109.2101 C524.9704,109.2101 529.0004,105.1811 529.0004,100.2101 L529.0004,55.2101 L529.0004,10.2101 C529.0004,5.2391 524.9704,1.2101 520.0004,1.2101" id="Fill-7" fill="#001F3F"></path>
            <path d="M332.0004,37.2096 L332.0004,37.2096 C331.9994,37.2096 331.9984,37.2096 331.9974,37.2096 L296.0004,37.2096 L296.0004,37.2096 L296.1194,37.2096 C296.1164,37.0646 296.0994,36.9236 296.0994,36.7776 C296.0994,28.7506 301.0414,21.9176 307.9594,19.3306 C311.5294,17.9956 314.0004,14.6236 314.0004,10.7076 L314.0004,10.2876 C314.0004,3.9966 307.9634,-0.3424 302.2034,1.7346 C288.0444,6.8436 277.9234,20.8156 278.1014,37.2016 C278.1044,37.2046 278.1054,37.2066 278.1094,37.2096 L278.0004,37.2096 L278.0004,37.7326 C274.5064,38.9696 272.0004,42.2926 272.0004,46.2096 C272.0004,50.1266 274.5064,53.4496 278.0004,54.6866 L278.0004,100.2096 C278.0004,105.1806 282.0294,109.2096 287.0004,109.2096 C291.9704,109.2096 296.0004,105.1806 296.0004,100.2096 L296.0004,55.2096 L323.0004,55.2096 L323.0004,91.2096 L323.0004,100.2096 C323.0004,105.1806 327.0294,109.2096 332.0004,109.2096 C336.9704,109.2096 341.0004,105.1806 341.0004,100.2096 L341.0004,91.2096 L341.0004,55.2096 L341.0004,46.2096 C341.0004,41.2396 336.9704,37.2096 332.0004,37.2096" id="Fill-9" fill="#001F3F"></path>
            <path d="M332.0004,1.2096 L332.0004,1.2096 C327.0294,1.2096 323.0004,5.2396 323.0004,10.2096 C323.0004,15.1806 327.0294,19.2096 332.0004,19.2096 C336.9704,19.2096 341.0004,15.1806 341.0004,10.2096 C341.0004,5.2396 336.9704,1.2096 332.0004,1.2096" id="Fill-11" fill="#001F3F"></path>
            <g id="Group-15" transform="translate(0.000000, 0.440000)">
                <mask id="mask-2" fill="white">
                    <use xlink:href="#path-1"></use>
                </mask>
                <g id="Clip-14"></g>
                <path d="M32.9999,36.5597 L23.9999,36.5597 L23.9999,9.5597 C23.9999,4.5887 19.9709,0.5597 14.9999,0.5597 C10.0289,0.5597 5.9999,4.5887 5.9999,9.5597 L5.9999,37.0827 C2.5069,38.3197 -0.0001,41.6427 -0.0001,45.5597 C-0.0001,49.4767 2.5069,52.7997 5.9999,54.0367 L5.9999,72.5597 L6.1089,72.5597 C6.1059,72.5627 6.1039,72.5647 6.1009,72.5677 C5.9229,88.9527 16.0439,102.9257 30.2039,108.0337 C35.9629,110.1117 41.9999,105.7727 41.9999,99.4817 L41.9999,99.0617 C41.9999,95.1457 39.5299,91.7737 35.9589,90.4387 C29.0409,87.8517 24.0989,81.0177 24.0989,72.9917 C24.0989,72.8467 24.1169,72.7047 24.1199,72.5597 L23.9999,72.5597 L23.9999,54.5597 L32.9999,54.5597 C37.9709,54.5597 41.9999,50.5307 41.9999,45.5597 C41.9999,40.5887 37.9709,36.5597 32.9999,36.5597" id="Fill-13" fill="#355CFF" mask="url(#mask-2)"></path>
            </g>
            <g id="Group-18" transform="translate(538.000000, 90.440000)">
                <mask id="mask-4" fill="white">
                    <use xlink:href="#path-3"></use>
                </mask>
                <g id="Clip-17"></g>
                <path d="M9.0004,0.7701 L9.0004,0.7701 C4.0294,0.7701 0.0004,4.7991 0.0004,9.7701 C0.0004,14.7411 4.0294,18.7701 9.0004,18.7701 C13.9704,18.7701 18.0004,14.7411 18.0004,9.7701 C18.0004,4.7991 13.9704,0.7701 9.0004,0.7701" id="Fill-16" fill="#355CFF" mask="url(#mask-4)"></path>
            </g>
            <g id="Group-21" transform="translate(193.000000, 0.440000)">
                <mask id="mask-6" fill="white">
                    <use xlink:href="#path-5"></use>
                </mask>
                <g id="Clip-20"></g>
                <path d="M35.9999,36.5597 C29.4399,36.5597 23.2959,38.3227 17.9999,41.3877 L17.9999,9.5597 C17.9999,4.5887 13.9709,0.5597 8.9999,0.5597 C4.0289,0.5597 -0.0001,4.5887 -0.0001,9.5597 L-0.0001,54.5597 L-0.0001,72.5597 L-0.0001,99.5597 C-0.0001,104.5297 4.0289,108.5597 8.9999,108.5597 C13.9709,108.5597 17.9999,104.5297 17.9999,99.5597 L17.9999,72.5597 C17.9999,62.6177 26.0589,54.5597 35.9999,54.5597 C45.9409,54.5597 53.9999,62.6177 53.9999,72.5597 L53.9999,99.5597 C53.9999,104.5297 58.0289,108.5597 62.9999,108.5597 C67.9709,108.5597 71.9999,104.5297 71.9999,99.5597 L71.9999,72.5597 C71.9999,52.6777 55.8819,36.5597 35.9999,36.5597" id="Fill-19" fill="#355CFF" mask="url(#mask-6)"></path>
            </g>
            <path d="M171.0561,89.798 C168.7681,90.852 166.2231,91.44 163.5441,91.44 C158.7441,91.44 154.3741,89.55 151.1441,86.47 C150.9041,86.26 150.6641,86.01 150.4441,85.77 C147.4041,82.55 145.5441,78.21 145.5441,73.44 C145.5441,68.65 147.4241,64.29 150.4841,61.06 C150.7041,60.819 150.9441,60.58 151.1841,60.36 C154.4141,57.31 158.7641,55.44 163.5441,55.44 C166.2061,55.44 168.7341,56.02 171.0081,57.06 C174.3911,58.607 178.3841,57.83 181.0141,55.199 L181.0171,55.197 C185.4981,50.716 184.0531,43.173 178.2721,40.58 C173.7751,38.562 168.7881,37.44 163.5441,37.44 C153.7941,37.44 144.9441,41.32 138.4541,47.63 C138.2141,47.86 137.9741,48.09 137.7541,48.33 C131.4341,54.82 127.5441,63.68 127.5441,73.44 C127.5441,83.18 131.4141,92.029 137.7041,98.51 C137.9341,98.74 138.1641,98.98 138.4041,99.21 C144.8941,105.54 153.7641,109.44 163.5441,109.44 C168.8161,109.44 173.8261,108.305 178.3421,106.265 C184.1121,103.657 185.5541,96.129 181.0771,91.652 C178.4421,89.018 174.4401,88.239 171.0561,89.798" id="Fill-22" fill="#355CFF"></path>
        </g>
    </g>
</svg>