<?xml version="1.0" encoding="UTF-8"?>
<svg width="1000px" height="186px" viewBox="0 0 1000 186" version="1.1" xmlns="http://www.w3.org/2000/svg" xmlns:xlink="http://www.w3.org/1999/xlink">
    <title>Codefield_brand_logo</title>
    <defs>
        <polygon id="path-1" points="0 1.67179054 94.8745032 1.67179054 94.8745032 123.293412 0 123.293412"/>
        <polygon id="path-3" points="0.101182432 1.6722973 121.722804 1.6722973 121.722804 184.104392 0.101182432 184.104392"/>
        <polygon id="path-5" points="0.101182432 1.6722973 30.5065878 1.6722973 30.5065878 184.104392 0.101182432 184.104392"/>
        <polygon id="path-7" points="0.101182432 1.6722973 121.722804 1.6722973 121.722804 184.104392 0.101182432 184.104392"/>
        <polygon id="path-9" points="0.101182432 1.6722973 116.655236 1.6722973 116.655236 184.104392 0.101182432 184.104392"/>
        <polygon id="path-11" points="0.101182432 1.6722973 30.5065878 1.6722973 30.5065878 32.0773649 0.101182432 32.0773649"/>
    </defs>
    <g id="Codefield_brand_logo" stroke="none" stroke-width="1" fill="none" fill-rule="evenodd">
        <g id="Group-27" transform="translate(0.000000, 0.000000)">
            <g id="Group-3" transform="translate(0.000000, 60.827703)">
                <mask id="mask-2" fill="white">
                    <use xlink:href="#path-1"/>
                </mask>
                <g id="Clip-2"/>
                <path d="M90.4266892,93.2478041 C85.9756757,88.7967905 79.2155405,87.4809122 73.4993243,90.1160473 C69.6344595,91.8947635 65.3371622,92.8880068 60.8101351,92.8880068 C52.702027,92.8880068 45.3202703,89.6954392 39.8641892,84.4927365 C39.460473,84.1380068 39.0533784,83.7157095 38.6834459,83.3103041 C33.5483108,77.8711149 30.4047297,70.541723 30.4047297,62.4826014 C30.4047297,54.3913851 33.5820946,47.0282095 38.7493243,41.5704392 C39.1209459,41.1650338 39.5280405,40.7613176 39.9317568,40.3880068 C45.3878378,35.2359797 52.7375,32.0771959 60.8101351,32.0771959 C65.3067568,32.0771959 69.577027,33.0552365 73.4199324,34.8136824 C79.1327703,37.4268581 85.8793919,36.1143581 90.3219595,31.6701014 L90.3253378,31.666723 C97.8945946,24.0974662 95.4554054,11.3576014 85.6885135,6.97584459 C78.0922297,3.56706081 69.6699324,1.67179054 60.8101351,1.67179054 C44.3405405,1.67179054 29.3929054,8.22584459 18.4283784,18.8846284 C18.022973,19.2731419 17.6175676,19.6616554 17.2459459,20.0670608 C6.57027027,31.0298986 -0.000675675676,45.9961149 -0.000675675676,62.4826014 C-0.000675675676,78.9353041 6.53648649,93.8846284 17.1614865,104.830574 C17.55,105.219088 17.9385135,105.624493 18.3456081,106.014696 C29.3067568,116.707264 44.2915541,123.293412 60.8101351,123.293412 C69.7172297,123.293412 78.1800676,121.376182 85.8067568,117.930236 C95.5533784,113.52652 97.9891892,100.810304 90.4266892,93.2478041" id="Fill-1" fill="#55ECF3" mask="url(#mask-2)"/>
            </g>
            <g id="Group-6" transform="translate(246.621622, 0.016892)">
                <mask id="mask-4" fill="white">
                    <use xlink:href="#path-3"/>
                </mask>
                <g id="Clip-5"/>
                <path d="M60.9119932,153.698986 C44.1197635,153.698986 30.5065878,140.085811 30.5065878,123.293581 C30.5065878,106.501351 44.1197635,92.8881757 60.9119932,92.8881757 C77.704223,92.8881757 91.3173986,106.501351 91.3173986,123.293581 C91.3173986,140.085811 77.704223,153.698986 60.9119932,153.698986 M106.520101,1.67195946 C98.1231419,1.67195946 91.3173986,8.47939189 91.3173986,16.8746622 L91.3173986,70.6381757 C82.3714527,65.4608108 71.9930743,62.4827703 60.9119932,62.4827703 C27.3275338,62.4827703 0.101182432,89.7091216 0.101182432,123.293581 C0.101182432,156.87973 27.3275338,184.104392 60.9119932,184.104392 C94.4964527,184.104392 121.722804,156.87973 121.722804,123.293581 L121.722804,16.8746622 C121.722804,8.47939189 114.917061,1.67195946 106.520101,1.67195946" id="Fill-4" fill="#55ECF3" mask="url(#mask-4)"/>
            </g>
            <path d="M433.2125,110.709122 L431.467568,111.351014 L414.445608,117.516554 C415.562162,111.671959 418.374662,106.418581 422.372973,102.280068 C422.744595,101.85777 423.15,101.469257 423.573986,101.080743 C429.028378,96.0131757 436.329054,92.9219595 444.359459,92.9219595 C451.624662,92.9219595 458.315541,95.4557432 463.550338,99.6956081 L433.2125,110.709122 Z M494.37973,88.5131757 C483.352703,72.7868243 465.058784,62.5165541 444.359459,62.5165541 C427.911824,62.5165541 412.987838,69.0199324 402.011486,79.5773649 C401.604392,79.9489865 401.197297,80.3543919 400.791892,80.7597973 C390.035135,91.7226351 383.37973,106.739527 383.37973,123.327365 C383.37973,125.134797 383.4625,126.927027 383.616216,128.698986 C384.546959,139.256419 388.171959,149.053716 393.830743,157.364527 C404.790203,173.530068 423.3375,184.138176 444.359459,184.138176 C453.597635,184.138176 462.361149,182.0875 470.2125,178.411824 C479.660135,173.991216 481.611149,161.354392 474.226014,153.989527 C469.781757,149.558784 463.013176,148.177027 457.334122,150.849324 C453.394932,152.700676 448.996284,153.73277 444.359459,153.73277 C436.719257,153.73277 429.722635,150.930405 424.371284,146.285135 L455.249662,135.06723 L457.011486,134.425338 L474.476014,128.090878 L496.974324,119.923649 C501.888176,118.139865 504.665203,112.905068 503.339189,107.849324 C501.496284,100.820608 498.427027,94.2952703 494.37973,88.5131757 L494.37973,88.5131757 Z" id="Fill-7" fill="#55ECF3"/>
            <path d="M700.105236,110.709122 L698.360304,111.351014 L681.336655,117.516554 C682.454899,111.671959 685.265709,106.418581 689.26402,102.280068 C689.637331,101.85777 690.042736,101.469257 690.466723,101.080743 C695.919426,96.0131757 703.221791,92.9219595 711.250507,92.9219595 C718.517399,92.9219595 725.208277,95.4557432 730.443074,99.6956081 L700.105236,110.709122 Z M761.270777,88.5131757 C750.24375,72.7868243 731.949831,62.5165541 711.250507,62.5165541 C694.802872,62.5165541 679.878885,69.0199324 668.902534,79.5773649 C668.497128,79.9489865 668.090034,80.3543919 667.684628,80.7597973 C656.926182,91.7226351 650.270777,106.739527 650.270777,123.327365 C650.270777,125.134797 650.355236,126.927027 650.508953,128.698986 C651.438007,139.256419 655.064696,149.053716 660.721791,157.364527 C671.68125,173.530068 690.228547,184.138176 711.250507,184.138176 C720.490372,184.138176 729.252196,182.0875 737.105236,178.411824 C746.551182,173.991216 748.502196,161.354392 741.117061,153.989527 C736.672804,149.558784 729.905912,148.177027 724.225169,150.849324 C720.28598,152.700676 715.88902,153.73277 711.250507,153.73277 C703.610304,153.73277 696.615372,150.930405 691.26402,146.285135 L722.142399,135.06723 L723.904223,134.425338 L741.36875,128.090878 L763.865372,119.923649 C768.779223,118.139865 771.557939,112.905068 770.231926,107.849324 C768.38902,100.820608 765.318074,94.2952703 761.270777,88.5131757 L761.270777,88.5131757 Z" id="Fill-9" fill="#FFFFFF"/>
            <path d="M170.709291,153.715878 C153.917061,153.715878 140.303885,140.102703 140.303885,123.310473 C140.303885,106.518243 153.917061,92.9050676 170.709291,92.9050676 C187.50152,92.9050676 201.114696,106.518243 201.114696,123.310473 C201.114696,140.102703 187.50152,153.715878 170.709291,153.715878 M170.709291,62.4996622 C137.124831,62.4996622 109.89848,89.7260135 109.89848,123.310473 C109.89848,156.896622 137.124831,184.121284 170.709291,184.121284 C204.29375,184.121284 231.520101,156.896622 231.520101,123.310473 C231.520101,89.7260135 204.29375,62.4996622 170.709291,62.4996622" id="Fill-11" fill="#55ECF3"/>
            <g id="Group-15" transform="translate(785.472973, 0.016892)">
                <mask id="mask-6" fill="white">
                    <use xlink:href="#path-5"/>
                </mask>
                <g id="Clip-14"/>
                <path d="M15.3038851,1.67195946 C6.90692568,1.67195946 0.101182432,8.47939189 0.101182432,16.8746622 L0.101182432,92.8881757 L0.101182432,168.901689 C0.101182432,177.298649 6.90692568,184.104392 15.3038851,184.104392 C23.7008446,184.104392 30.5065878,177.298649 30.5065878,168.901689 L30.5065878,92.8881757 L30.5065878,16.8746622 C30.5065878,8.47939189 23.7008446,1.67195946 15.3038851,1.67195946" id="Fill-13" fill="#FFFFFF" mask="url(#mask-6)"/>
            </g>
            <g id="Group-18" transform="translate(831.081081, 0.016892)">
                <mask id="mask-8" fill="white">
                    <use xlink:href="#path-7"/>
                </mask>
                <g id="Clip-17"/>
                <path d="M60.9119932,153.698986 C44.1197635,153.698986 30.5065878,140.085811 30.5065878,123.293581 C30.5065878,106.501351 44.1197635,92.8881757 60.9119932,92.8881757 C77.704223,92.8881757 91.3173986,106.501351 91.3173986,123.293581 C91.3173986,140.085811 77.704223,153.698986 60.9119932,153.698986 M106.520101,1.67195946 C98.1231419,1.67195946 91.3173986,8.47939189 91.3173986,16.8746622 L91.3173986,70.6381757 C82.3714527,65.4608108 71.9930743,62.4827703 60.9119932,62.4827703 C27.3275338,62.4827703 0.101182432,89.7091216 0.101182432,123.293581 C0.101182432,156.87973 27.3275338,184.104392 60.9119932,184.104392 C72.5555743,184.104392 83.4288851,180.829054 92.6738176,175.153378 C95.0589527,180.428716 100.35625,184.104392 106.520101,184.104392 C114.917061,184.104392 121.722804,177.298649 121.722804,168.901689 L121.722804,92.8881757 L121.722804,16.8746622 C121.722804,8.47939189 114.917061,1.67195946 106.520101,1.67195946" id="Fill-16" fill="#FFFFFF" mask="url(#mask-8)"/>
            </g>
            <g id="Group-21" transform="translate(518.581081, 0.016892)">
                <mask id="mask-10" fill="white">
                    <use xlink:href="#path-9"/>
                </mask>
                <g id="Clip-20"/>
                <path d="M101.452534,62.4827703 C101.450845,62.4827703 101.449155,62.4827703 101.449155,62.4827703 L40.641723,62.4827703 L40.641723,62.4827703 L40.8444257,62.4827703 C40.8376689,62.2378378 40.8089527,61.9996622 40.8089527,61.7530405 C40.8089527,48.1939189 49.1569257,36.6516892 60.8427365,32.2817568 C66.8748311,30.0266892 71.0471284,24.3307432 71.0471284,17.7158784 L71.0471284,17.0064189 C71.0471284,6.37972973 60.8494932,-0.949662162 51.1214527,2.55878378 C27.204223,11.1888514 10.1079392,34.7902027 10.4086149,62.4692568 C10.4119932,62.4743243 10.4153716,62.4777027 10.4204392,62.4827703 L10.2363176,62.4827703 L10.2363176,63.3662162 C4.33597973,65.4557432 0.101182432,71.0689189 0.101182432,77.685473 C0.101182432,84.302027 4.33597973,89.9152027 10.2363176,92.0047297 L10.2363176,168.901689 C10.2363176,177.298649 17.0420608,184.104392 25.4390203,184.104392 C33.8359797,184.104392 40.641723,177.298649 40.641723,168.901689 L40.641723,92.8881757 L86.2498311,92.8881757 L86.2498311,153.698986 L86.2498311,168.901689 C86.2498311,177.298649 93.0555743,184.104392 101.452534,184.104392 C109.849493,184.104392 116.655236,177.298649 116.655236,168.901689 L116.655236,153.698986 L116.655236,92.8881757 L116.655236,77.685473 L116.655236,77.685473 C116.655236,69.2902027 109.849493,62.4827703 101.452534,62.4827703" id="Fill-19" fill="#FFFFFF" mask="url(#mask-10)"/>
            </g>
            <g id="Group-24" transform="translate(604.729730, 0.016892)">
                <mask id="mask-12" fill="white">
                    <use xlink:href="#path-11"/>
                </mask>
                <g id="Clip-23"/>
                <path d="M15.3038851,1.67195946 C6.90692568,1.67195946 0.101182432,8.47939189 0.101182432,16.8746622 C0.101182432,25.2716216 6.90692568,32.0773649 15.3038851,32.0773649 C23.7008446,32.0773649 30.5065878,25.2716216 30.5065878,16.8746622 C30.5065878,8.47939189 23.7008446,1.67195946 15.3038851,1.67195946" id="Fill-22" fill="#FFFFFF" mask="url(#mask-12)"/>
            </g>
            <path d="M983.209291,153.715878 C974.812331,153.715878 968.006588,160.521622 968.006588,168.918581 C968.006588,177.315541 974.812331,184.121284 983.209291,184.121284 C991.60625,184.121284 998.411993,177.315541 998.411993,168.918581 C998.411993,160.521622 991.60625,153.715878 983.209291,153.715878" id="Fill-25" fill="#55ECF3"/>
        </g>
    </g>
</svg>