<svg viewBox="0 0 359 60" fill="none" xmlns="http://www.w3.org/2000/svg"><path d="M75.17 26.8084C75.17 18.3446 68.2103 11.4893 59.6177 11.4893C51.025 11.4893 44.0653 18.3446 44.0653 26.8084C44.0653 35.2722 51.025 42.1276 59.6177 42.1276H64.8018V35.7446H59.6177C54.615 35.7446 50.5455 31.7361 50.5455 26.8084C50.5455 21.8807 54.615 17.8722 59.6177 17.8722C64.6203 17.8722 68.6899 21.8807 68.6899 26.8084V33.1914V35.7446V42.1276H75.17V26.8084Z" fill="#2F3A4C"></path><path d="M154.228 35.7446H147.747C142.745 35.7446 138.675 31.7361 138.675 26.8084C138.675 21.8807 142.745 17.8722 147.747 17.8722C152.75 17.8722 156.82 21.8807 156.82 26.8084V31.9148H163.3V26.8084C163.3 18.3446 156.34 11.4893 147.747 11.4893C139.155 11.4893 132.195 18.3446 132.195 26.8084C132.195 35.2722 139.155 42.1276 147.747 42.1276H163.3V35.7446H156.82H154.228Z" fill="#2F3A4C"></path><path d="M300.679 35.7446H294.199C289.196 35.7446 285.127 31.7361 285.127 26.8084C285.127 21.8807 289.196 17.8722 294.199 17.8722C299.201 17.8722 303.271 21.8807 303.271 26.8084V31.9148H309.751V26.8084C309.751 18.3446 302.791 11.4893 294.199 11.4893C285.606 11.4893 278.646 18.3446 278.646 26.8084C278.646 35.2722 285.606 42.1276 294.199 42.1276H309.751V35.7446H303.271H300.679Z" fill="#005FFF"></path><path d="M112.755 26.8084C112.755 18.3446 105.795 11.4893 97.2022 11.4893C88.6096 11.4893 81.6499 18.3446 81.6499 26.8084V42.1276H88.13V35.7446V33.1914V26.8084C88.13 21.8807 92.1996 17.8722 97.2022 17.8722C102.205 17.8722 106.274 21.8807 106.274 26.8084V33.1914V35.7446V42.1276H112.755V26.8084Z" fill="#2F3A4C"></path><path d="M347.336 26.8084C347.336 18.3446 340.376 11.4893 331.783 11.4893C323.191 11.4893 316.231 18.3446 316.231 26.8084V42.1276H322.711V35.7446V33.1914V26.8084C322.711 21.8807 326.781 17.8722 331.783 17.8722C336.786 17.8722 340.856 21.8807 340.856 26.8084V33.1914V35.7446V42.1276H347.336V26.8084Z" fill="#005FFF"></path><path d="M125.715 11.4893H119.234V42.1276H125.715V11.4893Z" fill="#2F3A4C"></path><path d="M176.843 0H170.363V42.1277H176.843V0Z" fill="#2F3A4C"></path><path d="M200.884 11.4893C192.292 11.4893 185.332 18.3446 185.332 26.8084C185.332 27.6765 185.423 28.5318 185.565 29.3616C185.967 31.7105 186.913 33.8807 188.274 35.7446C189.557 37.5063 191.216 38.9871 193.134 40.0722C195.415 41.3744 198.059 42.1276 200.897 42.1276H206.082V35.7446H200.897C197.606 35.7446 194.728 34.0084 193.134 31.4169C192.745 30.7786 192.421 30.0893 192.201 29.3616C191.955 28.5573 191.825 27.702 191.825 26.8084C191.825 21.8807 195.895 17.8722 200.897 17.8722C205.9 17.8722 209.97 21.8807 209.97 26.8084V29.3616V35.7446V42.1276V44.6807C209.97 49.6084 205.9 53.6169 200.897 53.6169C195.895 53.6169 191.825 49.6084 191.825 44.6807H185.345C185.345 53.1446 192.305 59.9999 200.897 59.9999C209.49 59.9999 216.45 53.1446 216.45 44.6807V42.1276V29.3616V26.8084C216.437 18.3446 209.477 11.4893 200.884 11.4893Z" fill="#005FFF"></path><path d="M257.91 17.8722C262.912 17.8722 266.982 21.8807 266.982 26.8084C266.982 31.7361 262.912 35.7446 257.91 35.7446C252.907 35.7446 248.837 31.7361 248.837 26.8084C248.837 21.8807 252.907 17.8722 257.91 17.8722ZM257.91 11.4893C249.317 11.4893 242.357 18.3446 242.357 26.8084C242.357 35.2722 249.317 42.1276 257.91 42.1276C266.502 42.1276 273.462 35.2722 273.462 26.8084C273.462 18.3446 266.502 11.4893 257.91 11.4893Z" fill="#005FFF"></path><path d="M229.397 34.468V24.1786C229.397 20.7063 232.261 17.8722 235.799 17.8722H238.469V11.4893H235.799C228.684 11.4893 222.917 17.1701 222.917 24.1786V42.1276H229.397V35.7446V34.468Z" fill="#005FFF"></path><path d="M19.4404 3.82983H0V30.6383H6.48014V10.2128H19.4404C26.5816 10.2128 32.4007 15.9447 32.4007 22.9788C32.4007 30.0128 26.5816 35.7447 19.4404 35.7447H10.3682H6.48014H0V42.1277H19.4404C30.1716 42.1277 38.8809 33.549 38.8809 22.9788C38.8809 12.4086 30.1716 3.82983 19.4404 3.82983Z" fill="#2F3A4C"></path><path d="M122.475 6.38298C124.264 6.38298 125.715 4.9541 125.715 3.19149C125.715 1.42888 124.264 0 122.475 0C120.685 0 119.234 1.42888 119.234 3.19149C119.234 4.9541 120.685 6.38298 122.475 6.38298Z" fill="#2F3A4C"></path></svg>