<?xml version="1.0" encoding="UTF-8"?>
<svg width="524px" height="110px" viewBox="0 0 524 110" version="1.1" xmlns="http://www.w3.org/2000/svg" xmlns:xlink="http://www.w3.org/1999/xlink">
    <title>Group 26</title>
    <defs>
        <polygon id="path-1" points="0.898 0.0003 72.1094212 0.0003 72.1094212 72 0.898 72"/>
        <polygon id="path-3" points="0.8975 0.0003 72.1099165 0.0003 72.1099165 72 0.8975 72"/>
        <polygon id="path-5" points="-0.0029 0.99 17.9971 0.99 17.9971 108.9898 -0.0029 108.9898"/>
        <polygon id="path-7" points="-0.0029 0.99 68.9971 0.99 68.9971 108.9898 -0.0029 108.9898"/>
        <polygon id="path-9" points="-0.0029 0.99 17.9971 0.99 17.9971 18.9898 -0.0029 18.9898"/>
        <polygon id="path-11" points="-0.0029 0.9903 17.997 0.9903 17.997 18.9903 -0.0029 18.9903"/>
        <polygon id="path-13" points="0.0001 0.0001 72.0001 0.0001 72.0001 72 0.0001 72"/>
    </defs>
    <g id="UX-design" stroke="none" stroke-width="1" fill="none" fill-rule="evenodd">
        <g id="Group-26">
            <path d="M194.9971,91.0003 C185.0561,91.0003 176.9971,82.9403 176.9971,73.0003 C176.9971,63.0593 185.0561,55.0003 194.9971,55.0003 C204.9381,55.0003 212.9971,63.0593 212.9971,73.0003 C212.9971,82.9403 204.9381,91.0003 194.9971,91.0003 M221.9971,1.0003 C217.0261,1.0003 212.9971,5.0293 212.9971,10.0003 L212.9971,41.8283 C207.7011,38.7633 201.5571,37.0003 194.9971,37.0003 C175.1151,37.0003 158.9971,53.1173 158.9971,73.0003 C158.9971,92.8823 175.1151,109.0003 194.9971,109.0003 C214.8791,109.0003 230.9971,92.8823 230.9971,73.0003 L230.9971,10.0003 C230.9971,5.0293 226.9681,1.0003 221.9971,1.0003" id="Fill-1" fill="#00C9FF"/>
            <g id="Group-5" transform="translate(80.000000, 37.010000)">
                <mask id="mask-2" fill="white">
                    <use xlink:href="#path-1"/>
                </mask>
                <g id="Clip-4"/>
                <path d="M30.399,28.5303 L29.366,28.9103 L19.289,32.5593 C19.95,29.0993 21.615,25.9903 23.982,23.5403 C24.202,23.2903 24.442,23.0593 24.693,22.8303 C27.922,19.8303 32.244,18.0003 36.998,18.0003 C41.299,18.0003 45.26,19.5003 48.359,22.0093 L30.399,28.5303 Z M66.61,15.3893 C60.082,6.0793 49.252,0.0003 36.998,0.0003 C27.26,0.0003 18.426,3.8493 11.928,10.0993 C11.687,10.3203 11.446,10.5603 11.206,10.8003 C4.838,17.2903 0.898,26.1793 0.898,36.0003 C0.898,37.0703 0.947,38.1303 1.038,39.1793 C1.589,45.4293 3.735,51.2293 7.085,56.1493 C13.572,65.7193 24.553,72.0003 36.998,72.0003 C42.467,72.0003 47.655,70.7853 52.303,68.6103 C57.896,65.9933 59.051,58.5113 54.679,54.1523 C52.048,51.5283 48.041,50.7113 44.679,52.2923 C42.347,53.3893 39.743,54.0003 36.998,54.0003 C32.475,54.0003 28.333,52.3403 25.165,49.5903 L43.445,42.9503 L44.488,42.5703 L54.827,38.8203 L68.146,33.9853 C71.054,32.9283 72.699,29.8293 71.914,26.8363 C70.823,22.6763 69.006,18.8133 66.61,15.3893 L66.61,15.3893 Z" id="Fill-3" fill="#00C9FF" mask="url(#mask-2)"/>
            </g>
            <g id="Group-8" transform="translate(317.000000, 37.010000)">
                <mask id="mask-4" fill="white">
                    <use xlink:href="#path-3"/>
                </mask>
                <g id="Clip-7"/>
                <path d="M30.3995,28.5303 L29.3665,28.9103 L19.2885,32.5593 C19.9505,29.0993 21.6145,25.9903 23.9815,23.5403 C24.2025,23.2903 24.4425,23.0593 24.6935,22.8303 C27.9215,19.8303 32.2445,18.0003 36.9975,18.0003 C41.2995,18.0003 45.2605,19.5003 48.3595,22.0093 L30.3995,28.5303 Z M66.6095,15.3893 C60.0815,6.0793 49.2515,0.0003 36.9975,0.0003 C27.2605,0.0003 18.4255,3.8493 11.9275,10.0993 C11.6875,10.3203 11.4465,10.5603 11.2065,10.8003 C4.8375,17.2903 0.8975,26.1793 0.8975,36.0003 C0.8975,37.0703 0.9475,38.1303 1.0385,39.1793 C1.5885,45.4293 3.7355,51.2293 7.0845,56.1493 C13.5725,65.7193 24.5525,72.0003 36.9975,72.0003 C42.4675,72.0003 47.6545,70.7853 52.3025,68.6103 C57.8955,65.9933 59.0505,58.5113 54.6785,54.1523 C52.0475,51.5283 48.0415,50.7113 44.6785,52.2923 C42.3465,53.3893 39.7435,54.0003 36.9975,54.0003 C32.4745,54.0003 28.3335,52.3403 25.1655,49.5903 L43.4455,42.9503 L44.4885,42.5703 L54.8275,38.8203 L68.1455,33.9853 C71.0545,32.9283 72.6995,29.8293 71.9145,26.8363 C70.8235,22.6763 69.0055,18.8133 66.6095,15.3893 L66.6095,15.3893 Z" id="Fill-6" fill="#0B3B6B" mask="url(#mask-4)"/>
            </g>
            <g id="Group-11" transform="translate(398.000000, 0.010000)">
                <mask id="mask-6" fill="white">
                    <use xlink:href="#path-5"/>
                </mask>
                <g id="Clip-10"/>
                <path d="M8.9971,0.9898 C4.0261,0.9898 -0.0029,5.0198 -0.0029,9.9898 L-0.0029,54.9898 L-0.0029,99.9898 C-0.0029,104.9608 4.0261,108.9898 8.9971,108.9898 C13.9681,108.9898 17.9971,104.9608 17.9971,99.9898 L17.9971,54.9898 L17.9971,9.9898 C17.9971,5.0198 13.9681,0.9898 8.9971,0.9898" id="Fill-9" fill="#0B3B6B" mask="url(#mask-6)"/>
            </g>
            <path d="M460.9971,91.0003 C451.0561,91.0003 442.9971,82.9403 442.9971,73.0003 C442.9971,63.0593 451.0561,55.0003 460.9971,55.0003 C470.9381,55.0003 478.9971,63.0593 478.9971,73.0003 C478.9971,82.9403 470.9381,91.0003 460.9971,91.0003 M487.9971,1.0003 C483.0261,1.0003 478.9971,5.0293 478.9971,10.0003 L478.9971,41.8283 C473.7011,38.7633 467.5571,37.0003 460.9971,37.0003 C441.1151,37.0003 424.9971,53.1173 424.9971,73.0003 C424.9971,92.8823 441.1151,109.0003 460.9971,109.0003 C467.8901,109.0003 474.3271,107.0603 479.8001,103.7013 C481.2121,106.8233 484.3481,109.0003 487.9971,109.0003 C492.9681,109.0003 496.9971,104.9713 496.9971,100.0003 L496.9971,55.0003 L496.9971,10.0003 C496.9971,5.0293 492.9681,1.0003 487.9971,1.0003" id="Fill-12" fill="#0B3B6B"/>
            <g id="Group-16" transform="translate(240.000000, 0.010000)">
                <mask id="mask-8" fill="white">
                    <use xlink:href="#path-7"/>
                </mask>
                <g id="Clip-15"/>
                <path d="M59.9971,36.9898 C59.9961,36.9898 59.9951,36.9898 59.9951,36.9898 L23.9971,36.9898 L23.9971,36.9898 L24.1171,36.9898 C24.1131,36.8448 24.0961,36.7038 24.0961,36.5578 C24.0961,28.5318 29.0381,21.6978 35.9561,19.1108 C39.5271,17.7758 41.9971,14.4038 41.9971,10.4878 L41.9971,10.0678 C41.9971,3.7768 35.9601,-0.5622 30.2011,1.5148 C16.0411,6.6238 5.9211,20.5958 6.0981,36.9818 C6.1011,36.9848 6.1031,36.9868 6.1061,36.9898 L5.9971,36.9898 L5.9971,37.5128 C2.5041,38.7498 -0.0029,42.0728 -0.0029,45.9898 C-0.0029,49.9068 2.5041,53.2308 5.9971,54.4668 L5.9971,99.9898 C5.9971,104.9608 10.0261,108.9898 14.9971,108.9898 C19.9681,108.9898 23.9971,104.9608 23.9971,99.9898 L23.9971,54.9898 L50.9971,54.9898 L50.9971,90.9898 L50.9971,99.9898 C50.9971,104.9608 55.0261,108.9898 59.9971,108.9898 C64.9681,108.9898 68.9971,104.9608 68.9971,99.9898 L68.9971,90.9898 L68.9971,54.9898 L68.9971,45.9898 L68.9971,45.9898 C68.9971,41.0198 64.9681,36.9898 59.9971,36.9898" id="Fill-14" fill="#0B3B6B" mask="url(#mask-8)"/>
            </g>
            <g id="Group-19" transform="translate(291.000000, 0.010000)">
                <mask id="mask-10" fill="white">
                    <use xlink:href="#path-9"/>
                </mask>
                <g id="Clip-18"/>
                <path d="M8.9971,0.9898 C4.0261,0.9898 -0.0029,5.0198 -0.0029,9.9898 C-0.0029,14.9608 4.0261,18.9898 8.9971,18.9898 C13.9681,18.9898 17.9971,14.9608 17.9971,9.9898 C17.9971,5.0198 13.9681,0.9898 8.9971,0.9898" id="Fill-17" fill="#0B3B6B" mask="url(#mask-10)"/>
            </g>
            <g id="Group-22" transform="translate(506.000000, 90.010000)">
                <mask id="mask-12" fill="white">
                    <use xlink:href="#path-11"/>
                </mask>
                <g id="Clip-21"/>
                <path d="M8.9971,0.9903 C4.0261,0.9903 -0.0029,5.0193 -0.0029,9.9903 C-0.0029,14.9613 4.0261,18.9903 8.9971,18.9903 C13.9681,18.9903 17.9971,14.9613 17.9971,9.9903 C17.9971,5.0193 13.9681,0.9903 8.9971,0.9903" id="Fill-20" fill="#00C9FF" mask="url(#mask-12)"/>
            </g>
            <g id="Group-25" transform="translate(0.000000, 37.010000)">
                <mask id="mask-14" fill="white">
                    <use xlink:href="#path-13"/>
                </mask>
                <g id="Clip-24"/>
                <path d="M49.5001,0.0001 C44.4321,0.0001 39.7601,1.6791 36.0001,4.5071 C32.2401,1.6791 27.5671,0.0001 22.5001,0.0001 C10.2411,0.0001 0.2791,9.8061 0.0131,22.0001 L0.0001,22.0001 L0.0001,63.0001 C0.0001,67.9711 4.0291,72.0001 9.0001,72.0001 C13.9711,72.0001 18.0001,67.9711 18.0001,63.0001 L18.0001,22.0001 L18.0511,22.0001 C18.3031,19.7561 20.1901,18.0001 22.5001,18.0001 C24.8101,18.0001 26.6971,19.7561 26.9491,22.0001 L27.0001,22.0001 L27.0001,63.0001 C27.0001,67.9711 31.0291,72.0001 36.0001,72.0001 C40.9711,72.0001 45.0001,67.9711 45.0001,63.0001 L45.0001,22.0001 L45.0511,22.0001 C45.3031,19.7561 47.1901,18.0001 49.5001,18.0001 C51.8101,18.0001 53.6971,19.7561 53.9491,22.0001 L54.0001,22.0001 L54.0001,63.0001 C54.0001,67.9711 58.0291,72.0001 63.0001,72.0001 C67.9711,72.0001 72.0001,67.9711 72.0001,63.0001 L72.0001,22.0001 L71.9871,22.0001 C71.7211,9.8061 61.7591,0.0001 49.5001,0.0001" id="Fill-23" fill="#00C9FF" mask="url(#mask-14)"/>
            </g>
        </g>
    </g>
</svg>